<?xml version="1.0" encoding="utf-8"?>
<!-- Generator: Adobe Illustrator 24.3.0, SVG Export Plug-In . SVG Version: 6.00 Build 0)  -->
<svg version="1.1" xmlns="http://www.w3.org/2000/svg" xmlns:xlink="http://www.w3.org/1999/xlink" x="0px" y="0px"
	 viewBox="0 0 25 25" style="enable-background:new 0 0 25 25;" xml:space="preserve">
<style type="text/css">
	.st0{display:none;}
	.st1{display:inline;fill:#393838;}
	.st2{fill:#FFFFFF;}
	.st3{fill:#006837;}
	.st4{fill:#FFFFFF;stroke:#393838;stroke-width:0.0519;stroke-miterlimit:10;}
	.st5{fill:#FFFFFF;stroke:#393838;stroke-width:0.2282;stroke-miterlimit:10;}
	.st6{fill:#FFFFFF;stroke:#393838;stroke-width:0.8088;stroke-miterlimit:10;}
	.st7{fill:#FFFFFF;stroke:#393838;stroke-width:0.364;stroke-miterlimit:10;}
	.st8{fill:#E85656;stroke:#393838;stroke-width:0.2485;stroke-miterlimit:10;}
	.st9{fill:#E85656;}
	.st10{fill:#E85656;stroke:#393838;stroke-width:0.2282;stroke-miterlimit:10;}
	.st11{fill:#393838;}
	.st12{fill:#FFFFFF;stroke:#393838;stroke-width:0.2485;stroke-miterlimit:10;}
	.st13{fill:#191919;}
	.st14{fill:#FFFFFF;stroke:#393838;stroke-width:0.513;stroke-miterlimit:10;}
	.st15{fill:none;stroke:#E85656;stroke-width:0.5;stroke-miterlimit:10;}
	.st16{fill:#899EBB;}
	.st17{fill:#333333;}
	.st18{fill:#454966;}
	.st19{fill:#DF4554;}
	.st20{fill:#949495;}
	.st21{fill:#7D7D82;}
</style>
<g id="Layer_1" class="st0">
</g>
<g id="Layer_2">
	<g>
		<path class="st18" d="M12.66,23.79c-6.18,0-11.02-4.83-11.02-11.01c0-6.09,4.88-11,10.98-11.02c6.1-0.02,11.03,4.92,11.02,11.05
			C23.63,18.96,18.8,23.79,12.66,23.79z M3.72,12.78c-0.02,4.95,3.92,8.91,8.9,8.94c4.93,0.03,8.93-3.95,8.94-8.9
			c0.01-4.89-3.92-8.9-8.75-8.93C7.7,3.86,3.74,7.74,3.72,12.78z"/>
		<path class="st18" d="M12.65,11.6c1.62,0,3.24,0.02,4.85-0.01c0.58-0.01,0.81,0.18,0.81,0.78c0.02,1.69,0.04,1.69-1.68,1.69
			c-2.91,0-5.81-0.02-8.72,0.01c-0.73,0.01-0.98-0.24-0.97-0.97c0.03-1.73-0.07-1.49,1.53-1.5C9.87,11.59,11.26,11.6,12.65,11.6z"/>
	</g>
</g>
</svg>
