<?xml version="1.0" encoding="utf-8"?>
<!-- Generator: Adobe Illustrator 24.3.0, SVG Export Plug-In . SVG Version: 6.00 Build 0)  -->
<svg version="1.1" xmlns="http://www.w3.org/2000/svg" xmlns:xlink="http://www.w3.org/1999/xlink" x="0px" y="0px"
	 viewBox="0 0 25 25" style="enable-background:new 0 0 25 25;" xml:space="preserve">
<style type="text/css">
	.st0{display:none;}
	.st1{display:inline;fill:#393838;}
	.st2{fill:#FFFFFF;}
	.st3{fill:#006837;}
	.st4{fill:#FFFFFF;stroke:#393838;stroke-width:0.0519;stroke-miterlimit:10;}
	.st5{fill:#FFFFFF;stroke:#393838;stroke-width:0.2282;stroke-miterlimit:10;}
	.st6{fill:#FFFFFF;stroke:#393838;stroke-width:0.8088;stroke-miterlimit:10;}
	.st7{fill:#FFFFFF;stroke:#393838;stroke-width:0.364;stroke-miterlimit:10;}
	.st8{fill:#E85656;stroke:#393838;stroke-width:0.2485;stroke-miterlimit:10;}
	.st9{fill:#E85656;}
	.st10{fill:#E85656;stroke:#393838;stroke-width:0.2282;stroke-miterlimit:10;}
	.st11{fill:#393838;}
	.st12{fill:#FFFFFF;stroke:#393838;stroke-width:0.2485;stroke-miterlimit:10;}
	.st13{fill:#191919;}
	.st14{fill:#FFFFFF;stroke:#393838;stroke-width:0.513;stroke-miterlimit:10;}
	.st15{fill:none;stroke:#E85656;stroke-width:0.5;stroke-miterlimit:10;}
	.st16{fill:#899EBB;}
	.st17{fill:#333333;}
	.st18{fill:#454966;}
	.st19{fill:#DF4554;}
	.st20{fill:#949495;}
	.st21{fill:#7D7D82;}
	.st22{fill:#077751;}
	.st23{fill:#A4DAB0;}
</style>
<g id="Layer_1" class="st0">
</g>
<g id="Layer_2">
	<g>
		<g>
			<path class="st2" d="M10.23,16.76c2.6-2.57,5.12-5.07,7.64-7.57c0.99-0.98,1.98-1.96,2.94-2.96c0.38-0.4,0.67-0.47,1.08-0.02
				c1.46,1.59,1.49,1.11-0.01,2.62c-3.63,3.65-7.28,7.28-10.92,10.92c-0.67,0.67-0.71,0.67-1.38,0c-1.62-1.63-3.22-3.27-4.86-4.88
				c-0.44-0.43-0.41-0.73,0.01-1.14c1.51-1.44,1.05-1.39,2.45-0.03C8.2,14.71,9.2,15.74,10.23,16.76z"/>
		</g>
	</g>
</g>
</svg>
