<?xml version="1.0" encoding="utf-8"?>
<!-- Generator: Adobe Illustrator 24.3.0, SVG Export Plug-In . SVG Version: 6.00 Build 0)  -->
<svg version="1.1" xmlns="http://www.w3.org/2000/svg" xmlns:xlink="http://www.w3.org/1999/xlink" x="0px" y="0px"
	 viewBox="0 0 25 25" style="enable-background:new 0 0 25 25;" xml:space="preserve">
<style type="text/css">
	.st0{display:none;}
	.st1{display:inline;fill:#393838;}
	.st2{fill:#FFFFFF;}
	.st3{fill:#006837;}
	.st4{fill:#FFFFFF;stroke:#393838;stroke-width:0.0519;stroke-miterlimit:10;}
	.st5{fill:#FFFFFF;stroke:#393838;stroke-width:0.2282;stroke-miterlimit:10;}
	.st6{fill:#FFFFFF;stroke:#393838;stroke-width:0.8088;stroke-miterlimit:10;}
	.st7{fill:#FFFFFF;stroke:#393838;stroke-width:0.364;stroke-miterlimit:10;}
	.st8{fill:#E85656;stroke:#393838;stroke-width:0.2485;stroke-miterlimit:10;}
	.st9{fill:#E85656;}
	.st10{fill:#E85656;stroke:#393838;stroke-width:0.2282;stroke-miterlimit:10;}
	.st11{fill:#393838;}
	.st12{fill:#FFFFFF;stroke:#393838;stroke-width:0.2485;stroke-miterlimit:10;}
	.st13{fill:#191919;}
	.st14{fill:#FFFFFF;stroke:#393838;stroke-width:0.513;stroke-miterlimit:10;}
	.st15{fill:none;stroke:#E85656;stroke-width:0.5;stroke-miterlimit:10;}
	.st16{fill:#899EBB;}
	.st17{fill:#333333;}
	.st18{fill:#454966;}
	.st19{fill:#DF4554;}
	.st20{fill:#949495;}
	.st21{fill:#7D7D82;}
</style>
<g id="Layer_1" class="st0">
</g>
<g id="Layer_2">
	<g>
		<g>
			<path class="st19" d="M6.56,8.06c-0.19-0.02-0.3-0.04-0.41-0.03C5.61,8.06,5.52,7.73,5.52,7.29C5.51,6.83,5.65,6.54,6.16,6.54
				c0.7,0,1.4,0.03,2.09-0.02c0.22-0.02,0.5-0.18,0.64-0.36C9.2,5.73,9.45,5.26,9.72,4.8c0.32-0.55,0.79-0.83,1.45-0.81
				c1.04,0.02,2.09,0.02,3.13,0c0.61-0.01,1.05,0.25,1.36,0.76c0.04,0.06,0.09,0.12,0.11,0.19c0.48,1.35,1.4,1.9,2.82,1.6
				c0.16-0.03,0.33-0.01,0.49,0c0.72,0.01,1.1,0.55,0.74,1.17c-0.14,0.23-0.55,0.3-0.95,0.5c0,0.08-0.03,0.31-0.03,0.54
				c0,3.28,0,6.56,0,9.84c0,1.28-0.56,1.84-1.84,1.84c-2.86,0-5.72,0-8.58,0c-1.3,0-1.86-0.57-1.86-1.89c0-3.23,0-6.45,0-9.68
				C6.56,8.62,6.56,8.37,6.56,8.06z M8.06,8.04C8.04,8.23,8.02,8.37,8.02,8.52c0,3.3,0.01,6.6-0.01,9.89c0,0.45,0.16,0.55,0.57,0.55
				c2.75-0.01,5.5-0.02,8.24,0c0.47,0,0.58-0.15,0.58-0.6c-0.02-3.26-0.01-6.52-0.01-9.78c0-0.17-0.02-0.35-0.04-0.54
				C14.24,8.04,11.18,8.04,8.06,8.04z M10.49,6.5c1.49,0,2.95,0,4.41,0c-0.3-0.92-0.44-1.03-1.29-1.03c-0.55,0-1.11,0.06-1.65-0.01
				C11.16,5.35,10.73,5.71,10.49,6.5z"/>
			<path class="st19" d="M10.16,13.43c0-1.06,0.02-2.12-0.01-3.18c-0.02-0.6,0.34-0.57,0.75-0.57c0.41,0,0.75-0.02,0.75,0.57
				c-0.02,2.16-0.02,4.32,0,6.48c0.01,0.59-0.33,0.58-0.75,0.58c-0.41,0-0.76,0.02-0.75-0.58C10.18,15.63,10.16,14.53,10.16,13.43z"
				/>
			<path class="st19" d="M13.78,13.43c0-1.06,0.02-2.13-0.01-3.19c-0.02-0.55,0.28-0.59,0.69-0.57c0.38,0.02,0.78-0.08,0.77,0.54
				c-0.02,2.18-0.02,4.36,0,6.54c0.01,0.62-0.39,0.53-0.77,0.55c-0.41,0.01-0.71-0.02-0.69-0.57C13.8,15.63,13.78,14.53,13.78,13.43
				z"/>
		</g>
	</g>
</g>
</svg>
