<?xml version="1.0" encoding="utf-8"?>
<!-- Generator: Adobe Illustrator 24.3.0, SVG Export Plug-In . SVG Version: 6.00 Build 0)  -->
<svg version="1.1" xmlns="http://www.w3.org/2000/svg" xmlns:xlink="http://www.w3.org/1999/xlink" x="0px" y="0px"
	 viewBox="0 0 25 25" style="enable-background:new 0 0 25 25;" xml:space="preserve">
<style type="text/css">
	.st0{display:none;}
	.st1{display:inline;fill:#393838;}
	.st2{fill:#FFFFFF;}
	.st3{fill:#006837;}
	.st4{fill:#FFFFFF;stroke:#393838;stroke-width:0.0519;stroke-miterlimit:10;}
	.st5{fill:#FFFFFF;stroke:#393838;stroke-width:0.2282;stroke-miterlimit:10;}
	.st6{fill:#FFFFFF;stroke:#393838;stroke-width:0.8088;stroke-miterlimit:10;}
	.st7{fill:#FFFFFF;stroke:#393838;stroke-width:0.364;stroke-miterlimit:10;}
	.st8{fill:#E85656;stroke:#393838;stroke-width:0.2485;stroke-miterlimit:10;}
	.st9{fill:#E85656;}
	.st10{fill:#E85656;stroke:#393838;stroke-width:0.2282;stroke-miterlimit:10;}
	.st11{fill:#393838;}
	.st12{fill:#FFFFFF;stroke:#393838;stroke-width:0.2485;stroke-miterlimit:10;}
	.st13{fill:#191919;}
	.st14{fill:#FFFFFF;stroke:#393838;stroke-width:0.513;stroke-miterlimit:10;}
	.st15{fill:none;stroke:#E85656;stroke-width:0.5;stroke-miterlimit:10;}
	.st16{fill:#899EBB;}
	.st17{fill:#333333;}
	.st18{fill:#454966;}
	.st19{fill:#DF4554;}
	.st20{fill:#949495;}
	.st21{fill:#7D7D82;}
</style>
<g id="Layer_1" class="st0">
</g>
<g id="Layer_2">
	<g>
		<path class="st18" d="M20.51,13.8c0,2.21,0,4.43,0,6.64c0,1.3-0.69,2.04-1.99,2.05c-3.61,0.02-7.22,0.02-10.83,0
			c-1.29-0.01-2.01-0.77-2.01-2.05c-0.01-4.43-0.01-8.86,0-13.29c0-1.3,0.65-1.98,1.93-2.03c0.82-0.03,1.64-0.02,2.46-0.01
			c0.38,0.01,0.58-0.08,0.67-0.52c0.24-1.18,1.21-1.96,2.34-1.97c1.19-0.01,2.12,0.72,2.41,1.96c0.09,0.42,0.28,0.54,0.67,0.53
			c0.8-0.02,1.6-0.02,2.39,0c1.35,0.04,1.97,0.69,1.98,2.03C20.51,9.37,20.51,11.59,20.51,13.8z M7.44,13.7
			c0,2.06,0.02,4.12-0.01,6.18c-0.01,0.64,0.18,0.84,0.83,0.83c3.19-0.03,6.38-0.01,9.57-0.01c0.97,0,0.97,0,0.97-0.94
			c0-3.85,0-7.71,0-11.56c0-1.36,0-1.35-1.39-1.33c-0.44,0.01-0.68,0.12-0.62,0.6c0.01,0.11,0,0.22,0,0.33c0,0.93,0,0.94-0.97,0.94
			c-1.82,0-3.63,0-5.45,0c-0.93,0-0.93,0-0.93-0.92C9.42,6.88,9.42,6.88,8.49,6.88c-0.11,0-0.22,0.01-0.33,0
			C7.62,6.82,7.42,7.03,7.43,7.59C7.46,9.63,7.44,11.67,7.44,13.7z M14.09,5.06c0-0.51-0.46-0.99-0.97-1
			c-0.51-0.01-0.98,0.45-1,0.96c-0.02,0.54,0.47,1.04,1,1.03C13.62,6.05,14.09,5.57,14.09,5.06z"/>
	</g>
</g>
</svg>
