<?xml version="1.0" encoding="utf-8"?>
<!-- Generator: Adobe Illustrator 24.3.0, SVG Export Plug-In . SVG Version: 6.00 Build 0)  -->
<svg version="1.1" xmlns="http://www.w3.org/2000/svg" xmlns:xlink="http://www.w3.org/1999/xlink" x="0px" y="0px"
	 viewBox="0 0 25 25" style="enable-background:new 0 0 25 25;" xml:space="preserve">
<style type="text/css">
	.st0{display:none;}
	.st1{display:inline;fill:#393838;}
	.st2{fill:#FFFFFF;}
	.st3{fill:#006837;}
	.st4{fill:#FFFFFF;stroke:#393838;stroke-width:0.0519;stroke-miterlimit:10;}
	.st5{fill:#FFFFFF;stroke:#393838;stroke-width:0.2282;stroke-miterlimit:10;}
	.st6{fill:#FFFFFF;stroke:#393838;stroke-width:0.8088;stroke-miterlimit:10;}
	.st7{fill:#FFFFFF;stroke:#393838;stroke-width:0.364;stroke-miterlimit:10;}
	.st8{fill:#E85656;stroke:#393838;stroke-width:0.2485;stroke-miterlimit:10;}
	.st9{fill:#E85656;}
	.st10{fill:#E85656;stroke:#393838;stroke-width:0.2282;stroke-miterlimit:10;}
	.st11{fill:#393838;}
	.st12{fill:#FFFFFF;stroke:#393838;stroke-width:0.2485;stroke-miterlimit:10;}
	.st13{fill:#191919;}
	.st14{fill:#FFFFFF;stroke:#393838;stroke-width:0.513;stroke-miterlimit:10;}
	.st15{fill:none;stroke:#E85656;stroke-width:0.5;stroke-miterlimit:10;}
	.st16{fill:#899EBB;}
	.st17{fill:#333333;}
	.st18{fill:#454966;}
	.st19{fill:#DF4554;}
	.st20{fill:#949495;}
	.st21{fill:#7D7D82;}
</style>
<g id="Layer_1" class="st0">
</g>
<g id="Layer_2">
	<g>
		<path class="st18" d="M14.37,4.6c1.4,0,2.79,0,4.19,0c0.93,0,1.51,0.56,1.51,1.48c0.01,2.83,0.01,5.66,0,8.49
			c0,0.94-0.57,1.5-1.49,1.5c-2.83,0-5.66,0-8.49,0c-0.9,0-1.49-0.56-1.49-1.46c-0.01-2.85-0.01-5.69,0-8.54
			c0-0.92,0.59-1.47,1.52-1.47C11.54,4.6,12.95,4.6,14.37,4.6z"/>
		<path class="st20" d="M4.78,14.17c0-1.41,0-2.83,0-4.24c0-0.84,0.41-1.35,1.24-1.48C6.44,8.38,6.87,8.42,7.3,8.41
			C7.66,8.4,7.59,8.67,7.59,8.87c0,1.79,0,3.58,0,5.37c0,0.49,0.01,1,0.25,1.45c0.48,0.91,1.24,1.38,2.27,1.39
			c1.87,0.01,3.75,0.01,5.62-0.01c0.39,0,0.57,0.08,0.52,0.5c-0.03,0.25,0,0.51-0.01,0.77c-0.01,0.99-0.59,1.59-1.59,1.6
			c-2.76,0.01-5.52,0.01-8.28,0c-1.05,0-1.59-0.57-1.6-1.62C4.78,16.93,4.78,15.55,4.78,14.17z"/>
	</g>
</g>
</svg>
