<?xml version="1.0" encoding="utf-8"?>
<!-- Generator: Adobe Illustrator 24.3.0, SVG Export Plug-In . SVG Version: 6.00 Build 0)  -->
<svg version="1.1" xmlns="http://www.w3.org/2000/svg" xmlns:xlink="http://www.w3.org/1999/xlink" x="0px" y="0px"
	 viewBox="0 0 25 25" style="enable-background:new 0 0 25 25;" xml:space="preserve">
<style type="text/css">
	.st0{display:none;}
	.st1{display:inline;fill:#393838;}
	.st2{fill:#FFFFFF;}
	.st3{fill:#006837;}
	.st4{fill:#FFFFFF;stroke:#393838;stroke-width:0.0519;stroke-miterlimit:10;}
	.st5{fill:#FFFFFF;stroke:#393838;stroke-width:0.2282;stroke-miterlimit:10;}
	.st6{fill:#FFFFFF;stroke:#393838;stroke-width:0.8088;stroke-miterlimit:10;}
	.st7{fill:#FFFFFF;stroke:#393838;stroke-width:0.364;stroke-miterlimit:10;}
	.st8{fill:#E85656;stroke:#393838;stroke-width:0.2485;stroke-miterlimit:10;}
	.st9{fill:#E85656;}
	.st10{fill:#E85656;stroke:#393838;stroke-width:0.2282;stroke-miterlimit:10;}
	.st11{fill:#393838;}
	.st12{fill:#FFFFFF;stroke:#393838;stroke-width:0.2485;stroke-miterlimit:10;}
	.st13{fill:#191919;}
	.st14{fill:#FFFFFF;stroke:#393838;stroke-width:0.513;stroke-miterlimit:10;}
	.st15{fill:none;stroke:#E85656;stroke-width:0.5;stroke-miterlimit:10;}
	.st16{fill:#899EBB;}
	.st17{fill:#333333;}
	.st18{fill:#454966;}
	.st19{fill:#DF4554;}
	.st20{fill:#949495;}
	.st21{fill:#7D7D82;}
</style>
<g id="Layer_1" class="st0">
</g>
<g id="Layer_2">
	<g>
		<path class="st18" d="M8.45,10.73c-0.25,1.71-0.5,3.43-0.74,5.14c-0.13,0.89-0.23,1.78-0.39,2.66c-0.04,0.21-0.2,0.52-0.37,0.57
			c-0.39,0.11-0.42-0.26-0.47-0.53c-0.32-1.59-0.62-3.18-0.94-4.77c-0.02-0.12-0.07-0.25-0.11-0.38c-0.05,0.04-0.08,0.06-0.09,0.08
			c-0.28,1.2-0.28,1.2-1.52,1.2c-0.41,0-0.83,0.03-1.23-0.02c-0.14-0.02-0.26-0.25-0.39-0.39c0.13-0.11,0.25-0.31,0.39-0.32
			c0.44-0.04,0.9-0.04,1.34-0.01c0.41,0.03,0.6-0.08,0.64-0.53c0.08-0.8,0.2-1.59,0.35-2.38c0.04-0.19,0.25-0.35,0.39-0.52
			c0.14,0.17,0.37,0.32,0.41,0.51c0.33,1.53,0.62,3.07,0.93,4.61c0.04,0.18,0.08,0.35,0.23,0.54c0.03-0.2,0.07-0.41,0.1-0.61
			c0.35-2.49,0.71-4.98,1.06-7.48c0.02-0.15,0.01-0.32,0.09-0.43C8.21,7.52,8.37,7.39,8.5,7.38c0.1-0.01,0.26,0.13,0.32,0.25
			c0.07,0.14,0.08,0.32,0.1,0.49c0.49,3.13,0.98,6.26,1.47,9.39c0.03,0.18,0.07,0.36,0.2,0.55c0.1-0.73,0.21-1.47,0.3-2.2
			c0.45-3.44,0.91-6.88,1.36-10.31c0.01-0.07,0-0.17,0.03-0.22c0.12-0.16,0.26-0.3,0.39-0.44c0.13,0.15,0.35,0.28,0.37,0.45
			c0.21,1.36,0.38,2.73,0.56,4.1c0.36,2.7,0.71,5.4,1.06,8.1c0.02,0.18,0.06,0.36,0.19,0.55c0.1-0.64,0.21-1.27,0.31-1.91
			c0.42-2.71,0.84-5.42,1.27-8.12c0.01-0.07,0-0.16,0.04-0.22c0.12-0.16,0.26-0.31,0.39-0.46c0.13,0.15,0.35,0.29,0.38,0.46
			c0.15,0.86,0.26,1.73,0.38,2.6c0.26,1.85,0.52,3.69,0.79,5.54c0.01,0.07,0.03,0.13,0.15,0.21c0.06-0.26,0.11-0.53,0.17-0.79
			c0.28-1.43,0.55-2.86,0.86-4.28c0.05-0.22,0.3-0.39,0.45-0.59c0.13,0.2,0.33,0.39,0.37,0.61c0.15,0.77,0.26,1.54,0.35,2.32
			c0.04,0.37,0.16,0.53,0.55,0.5c0.46-0.03,0.93-0.04,1.4,0.01c0.15,0.02,0.28,0.23,0.42,0.35c-0.14,0.12-0.28,0.35-0.42,0.36
			c-0.65,0.04-1.3,0-1.96,0.02c-0.43,0.02-0.61-0.18-0.65-0.58c-0.02-0.24-0.08-0.47-0.23-0.71c-0.26,1.32-0.52,2.65-0.79,3.97
			c-0.08,0.42-0.13,0.85-0.26,1.26c-0.06,0.19-0.27,0.33-0.42,0.49c-0.13-0.17-0.35-0.33-0.37-0.52c-0.37-2.45-0.72-4.91-1.08-7.36
			c-0.03-0.17-0.07-0.35-0.2-0.51c-0.27,1.74-0.54,3.49-0.81,5.23c-0.26,1.7-0.52,3.39-0.78,5.09c-0.04,0.28-0.07,0.63-0.44,0.56
			c-0.16-0.03-0.34-0.36-0.37-0.57c-0.53-3.88-1.03-7.76-1.55-11.64c-0.03-0.24-0.07-0.48-0.2-0.72c-0.12,0.86-0.24,1.73-0.35,2.59
			c-0.42,3.22-0.84,6.43-1.26,9.65c0,0.04-0.01,0.07-0.02,0.11c-0.05,0.27-0.05,0.64-0.43,0.58c-0.16-0.03-0.35-0.35-0.39-0.56
			c-0.15-0.75-0.25-1.51-0.36-2.26c-0.38-2.51-0.76-5.01-1.15-7.52c-0.03-0.18-0.07-0.36-0.11-0.54
			C8.52,10.72,8.49,10.73,8.45,10.73z"/>
	</g>
</g>
</svg>
