<?xml version="1.0" encoding="utf-8"?>
<!-- Generator: Adobe Illustrator 24.3.0, SVG Export Plug-In . SVG Version: 6.00 Build 0)  -->
<svg version="1.1" xmlns="http://www.w3.org/2000/svg" xmlns:xlink="http://www.w3.org/1999/xlink" x="0px" y="0px"
	 viewBox="0 0 25 25" style="enable-background:new 0 0 25 25;" xml:space="preserve">
<style type="text/css">
	.st0{display:none;}
	.st1{display:inline;fill:#393838;}
	.st2{fill:#FFFFFF;}
	.st3{fill:#006837;}
	.st4{fill:#FFFFFF;stroke:#393838;stroke-width:0.0519;stroke-miterlimit:10;}
	.st5{fill:#FFFFFF;stroke:#393838;stroke-width:0.2282;stroke-miterlimit:10;}
	.st6{fill:#FFFFFF;stroke:#393838;stroke-width:0.8088;stroke-miterlimit:10;}
	.st7{fill:#FFFFFF;stroke:#393838;stroke-width:0.364;stroke-miterlimit:10;}
	.st8{fill:#E85656;stroke:#393838;stroke-width:0.2485;stroke-miterlimit:10;}
	.st9{fill:#E85656;}
	.st10{fill:#E85656;stroke:#393838;stroke-width:0.2282;stroke-miterlimit:10;}
	.st11{fill:#393838;}
	.st12{fill:#FFFFFF;stroke:#393838;stroke-width:0.2485;stroke-miterlimit:10;}
	.st13{fill:#191919;}
	.st14{fill:#FFFFFF;stroke:#393838;stroke-width:0.513;stroke-miterlimit:10;}
	.st15{fill:none;stroke:#E85656;stroke-width:0.5;stroke-miterlimit:10;}
	.st16{fill:#899EBB;}
	.st17{fill:#333333;}
	.st18{fill:#454966;}
	.st19{fill:#DF4554;}
	.st20{fill:#949495;}
	.st21{fill:#7D7D82;}
	.st22{fill:#077751;}
	.st23{fill:#A4DAB0;}
</style>
<g id="Layer_1" class="st0">
</g>
<g id="Layer_2">
	<g>
		<g>
			<g>
				<path class="st21" d="M12.61,13.71c1.04,0,2.08,0.01,3.12,0c0.66-0.01,1.14,0.24,1.41,0.88c0.26,0.62,0.08,1.12-0.38,1.57
					c-1.04,1.03-2.07,2.08-3.12,3.11c-0.65,0.64-1.41,0.65-2.06,0.01c-1.06-1.04-2.1-2.1-3.15-3.15c-0.46-0.46-0.58-0.98-0.32-1.59
					c0.25-0.59,0.71-0.83,1.33-0.83C10.5,13.71,11.56,13.71,12.61,13.71z M12.55,18.2c1.04-1.03,2.1-2.07,3.12-3.08
					c-2.03,0-4.12,0-6.19,0C10.53,16.17,11.57,17.22,12.55,18.2z"/>
				<path class="st21" d="M12.58,11.82c-1.04,0-2.08-0.01-3.12,0c-0.65,0.01-1.12-0.23-1.38-0.84c-0.26-0.61-0.11-1.12,0.35-1.58
					c1.04-1.03,2.07-2.08,3.12-3.11c0.68-0.67,1.44-0.66,2.13,0.02c1.02,1.01,2.03,2.03,3.05,3.05c0.53,0.53,0.64,1.04,0.37,1.66
					c-0.27,0.62-0.76,0.81-1.4,0.8C14.66,11.81,13.62,11.82,12.58,11.82z"/>
			</g>
		</g>
	</g>
</g>
</svg>
