<?xml version="1.0" encoding="utf-8"?>
<!-- Generator: Adobe Illustrator 24.3.0, SVG Export Plug-In . SVG Version: 6.00 Build 0)  -->
<svg version="1.1" xmlns="http://www.w3.org/2000/svg" xmlns:xlink="http://www.w3.org/1999/xlink" x="0px" y="0px"
	 viewBox="0 0 25 25" style="enable-background:new 0 0 25 25;" xml:space="preserve">
<style type="text/css">
	.st0{display:none;}
	.st1{display:inline;fill:#393838;}
	.st2{fill:#FFFFFF;}
	.st3{fill:#006837;}
	.st4{fill:#FFFFFF;stroke:#393838;stroke-width:0.0519;stroke-miterlimit:10;}
	.st5{fill:#FFFFFF;stroke:#393838;stroke-width:0.2282;stroke-miterlimit:10;}
	.st6{fill:#FFFFFF;stroke:#393838;stroke-width:0.8088;stroke-miterlimit:10;}
	.st7{fill:#FFFFFF;stroke:#393838;stroke-width:0.364;stroke-miterlimit:10;}
	.st8{fill:#E85656;stroke:#393838;stroke-width:0.2485;stroke-miterlimit:10;}
	.st9{fill:#E85656;}
	.st10{fill:#E85656;stroke:#393838;stroke-width:0.2282;stroke-miterlimit:10;}
	.st11{fill:#393838;}
	.st12{fill:#FFFFFF;stroke:#393838;stroke-width:0.2485;stroke-miterlimit:10;}
	.st13{fill:#191919;}
	.st14{fill:#FFFFFF;stroke:#393838;stroke-width:0.513;stroke-miterlimit:10;}
	.st15{fill:none;stroke:#E85656;stroke-width:0.5;stroke-miterlimit:10;}
	.st16{fill:#899EBB;}
	.st17{fill:#333333;}
	.st18{fill:#454966;}
	.st19{fill:#DF4554;}
	.st20{fill:#949495;}
	.st21{fill:#7D7D82;}
</style>
<g id="Layer_1" class="st0">
</g>
<g id="Layer_2">
	<g>
		<path class="st18" d="M15.91,14.27c0,1.52-0.45,2.67-1.39,3.63c-0.96,0.98-1.93,1.96-2.91,2.92c-1.99,1.95-5.04,1.98-7.04,0.1
			c-2.04-1.92-2.22-5-0.37-7.09c0.77-0.87,1.62-1.67,2.46-2.48c0.13-0.12,0.39-0.23,0.53-0.17c0.14,0.05,0.2,0.31,0.29,0.48
			c0.01,0.02,0,0.04,0,0.06c0.37,1.12-0.06,1.94-0.95,2.62c-0.33,0.25-0.6,0.58-0.87,0.89c-1.04,1.21-0.95,3.01,0.19,4.13
			C7,20.49,8.83,20.6,9.99,19.54c1.09-1,2.15-2.03,3.16-3.11c1.26-1.36,0.9-3.64-0.67-4.63c-0.27-0.17-0.7-0.3-0.52-0.72
			c0.19-0.44,0.48-0.85,0.79-1.21c0.06-0.08,0.44,0.03,0.61,0.14C15.03,11.02,15.86,12.51,15.91,14.27z"/>
		<path class="st18" d="M16.59,3.55c2.13,0.07,3.72,1.06,4.59,2.99c0.88,1.92,0.64,3.8-0.76,5.43c-0.77,0.9-1.65,1.7-2.5,2.53
			c-0.12,0.12-0.4,0.22-0.54,0.16c-0.14-0.06-0.19-0.32-0.27-0.49c-0.02-0.03,0-0.09-0.01-0.12c-0.37-1.06,0.05-1.82,0.88-2.46
			c0.36-0.28,0.66-0.64,0.95-0.99c1.03-1.22,0.93-3-0.22-4.13c-1.17-1.14-3.01-1.22-4.18-0.11c-1.03,0.97-2.05,1.96-3.02,2.98
			c-1.35,1.41-1,3.74,0.67,4.75c0.57,0.35,0.63,0.68,0.23,1.33c-0.4,0.64-0.67,0.73-1.25,0.39c-2.77-1.64-3.33-5.47-1.13-7.82
			c0.97-1.03,1.98-2.02,2.99-3.01C14.01,4.01,15.2,3.54,16.59,3.55z"/>
	</g>
</g>
</svg>
