<?xml version="1.0" encoding="utf-8"?>
<!-- Generator: Adobe Illustrator 24.3.0, SVG Export Plug-In . SVG Version: 6.00 Build 0)  -->
<svg version="1.1" xmlns="http://www.w3.org/2000/svg" xmlns:xlink="http://www.w3.org/1999/xlink" x="0px" y="0px"
	 viewBox="0 0 25 25" style="enable-background:new 0 0 25 25;" xml:space="preserve">
<style type="text/css">
	.st0{display:none;}
	.st1{display:inline;fill:#393838;}
	.st2{fill:#FFFFFF;}
	.st3{fill:#006837;}
	.st4{fill:#FFFFFF;stroke:#393838;stroke-width:0.0519;stroke-miterlimit:10;}
	.st5{fill:#FFFFFF;stroke:#393838;stroke-width:0.2282;stroke-miterlimit:10;}
	.st6{fill:#FFFFFF;stroke:#393838;stroke-width:0.8088;stroke-miterlimit:10;}
	.st7{fill:#FFFFFF;stroke:#393838;stroke-width:0.364;stroke-miterlimit:10;}
	.st8{fill:#E85656;stroke:#393838;stroke-width:0.2485;stroke-miterlimit:10;}
	.st9{fill:#E85656;}
	.st10{fill:#E85656;stroke:#393838;stroke-width:0.2282;stroke-miterlimit:10;}
	.st11{fill:#393838;}
	.st12{fill:#FFFFFF;stroke:#393838;stroke-width:0.2485;stroke-miterlimit:10;}
	.st13{fill:#191919;}
	.st14{fill:#FFFFFF;stroke:#393838;stroke-width:0.513;stroke-miterlimit:10;}
	.st15{fill:none;stroke:#E85656;stroke-width:0.5;stroke-miterlimit:10;}
	.st16{fill:#899EBB;}
	.st17{fill:#333333;}
	.st18{fill:#454966;}
	.st19{fill:#DF4554;}
	.st20{fill:#949495;}
	.st21{fill:#7D7D82;}
</style>
<g id="Layer_1" class="st0">
</g>
<g id="Layer_2">
	<g>
		<path class="st18" d="M18.03,14.22c-1.46-0.13-1.49-0.15-1.51-0.9c-0.04-1.34-0.04-1.34,1.51-1.61c0-0.23,0-0.48,0-0.73
			c0-2.25,0-4.49,0-6.74c0-0.76,0.13-0.87,0.92-0.87c0.71,0.01,0.84,0.13,0.84,0.88c0,2.25,0,4.49,0,6.74c0,0.23,0,0.47,0,0.67
			c0.49,0.12,1.07,0.1,1.33,0.38c0.24,0.26,0.18,0.84,0.18,1.28c0.01,0.67-0.01,0.67-1.51,0.93c0,0.37,0,0.75,0,1.13
			c0,2.12,0,4.24,0,6.36c0,0.7-0.19,0.88-0.87,0.88c-0.69,0-0.88-0.18-0.88-0.87c-0.01-2.25,0-4.49,0-6.74
			C18.03,14.76,18.03,14.5,18.03,14.22z"/>
		<path class="st18" d="M7.76,9.43c0,0.29,0,0.54,0,0.79c0,3.81,0,7.61,0,11.42c0,0.8-0.19,0.99-0.91,0.98
			c-0.68-0.01-0.86-0.2-0.86-0.96c0-3.81,0-7.61,0-11.42c0-0.26,0-0.51,0-0.75C5.49,9.35,4.86,9.36,4.64,9.07
			C4.39,8.74,4.48,8.13,4.49,7.65c0.04-1.04,0.93-0.52,1.49-0.77c0-0.84,0-1.71,0-2.58c0-0.8,0.12-0.92,0.86-0.92
			c0.78,0,0.9,0.12,0.91,0.95c0,0.85,0,1.71,0,2.52c0.5,0.13,1.08,0.11,1.33,0.39C9.32,7.5,9.22,8.08,9.25,8.52
			C9.33,9.66,8.38,9.22,7.76,9.43z"/>
		<path class="st18" d="M13.77,16.55c1.48,0.13,1.52,0.14,1.49,0.88c-0.05,1.36,0.38,1.46-1.49,1.6c0,0.88,0,1.76,0,2.65
			c0,0.77-0.24,0.97-1.02,0.93c-0.49-0.03-0.74-0.24-0.73-0.76c0.02-0.93,0-1.87,0-2.79c-1.59-0.33-1.59-0.33-1.52-1.71
			c0.03-0.65,0.08-0.68,1.52-0.81c0-0.24,0-0.48,0-0.73c0-3.83,0-7.65,0-11.48c0-0.89,0.57-1.3,1.37-0.91
			c0.21,0.1,0.36,0.51,0.36,0.79c0.03,2.03,0.02,4.06,0.02,6.09c0,1.84,0,3.68,0,5.52C13.77,16.06,13.77,16.29,13.77,16.55z"/>
	</g>
</g>
</svg>
